function data()
return { 
		subMeshes = {
			{ 
				indices = { 
					normal = { 
						count = 42816,
						offset = 218956,
					},
					position = { 
						count = 42816,
						offset = 133324,
					},
					tangent = { 
						count = 42816,
						offset = 261772,
					},
					uv0 = { 
						count = 42816,
						offset = 176140,
					},
				},
			},
		},
		vertexAttr = { 
			normal = { 
				count = 28044,
				numComp = 3,
				offset = 55120,
			},
			position = { 
				count = 30552,
				numComp = 3,
				offset = 0,
			},
			tangent = { 
				count = 50160,
				numComp = 4,
				offset = 83164,
			},
			uv0 = { 
				count = 24568,
				numComp = 2,
				offset = 30552,
			},
		},
	}
end