function data()
return { 
		subMeshes = {
			{ 
				indices = { 
					normal = { 
						count = 22008,
						offset = 93596,
					},
					position = { 
						count = 22008,
						offset = 49580,
					},
					tangent = { 
						count = 22008,
						offset = 115604,
					},
					uv0 = { 
						count = 22008,
						offset = 71588,
					},
				},
			},
			{ 
				indices = { 
					normal = { 
						count = 96,
						offset = 137804,
					},
					position = { 
						count = 96,
						offset = 137612,
					},
					tangent = { 
						count = 96,
						offset = 137900,
					},
					uv0 = { 
						count = 96,
						offset = 137708,
					},
				},
			},
		},
		vertexAttr = { 
			normal = { 
				count = 6468,
				numComp = 3,
				offset = 24328,
			},
			position = { 
				count = 14328,
				numComp = 3,
				offset = 0,
			},
			tangent = { 
				count = 18784,
				numComp = 4,
				offset = 30796,
			},
			uv0 = { 
				count = 10000,
				numComp = 2,
				offset = 14328,
			},
		},
	}
end